<?xml version="1.0" encoding="utf-8"?>
<!-- Generator: Adobe Illustrator 25.4.1, SVG Export Plug-In . SVG Version: 6.00 Build 0)  -->
<svg version="1.1" id="Capa_1" xmlns="http://www.w3.org/2000/svg" xmlns:xlink="http://www.w3.org/1999/xlink" x="0px" y="0px"
	 viewBox="0 0 1085.33 684.57" style="enable-background:new 0 0 1085.33 684.57;" xml:space="preserve">
<style type="text/css">
	.st0{fill:#00FFB0;}
	.st1{fill:#000A64;}
</style>
<g>
	<g>
		<g>
			<g>
				<path class="st0" d="M149.69,533.96c-13.11,0-23.77-3.78-31.7-11.23c-7.93-7.46-11.96-18.19-11.96-31.9v-0.44h30.87v0.44
					c0,5.05,1.04,8.9,3.08,11.45c2.02,2.52,4.99,3.8,8.83,3.8c3.49,0,6.23-1.13,8.13-3.37c1.92-2.26,2.89-5.61,2.89-9.94v-84.75
					h31.05v84.75c0,13.11-3.75,23.37-11.16,30.48C172.32,530.35,162.21,533.96,149.69,533.96z M106.92,491.27
					c0.09,13.24,4.01,23.6,11.68,30.81c7.75,7.29,18.22,10.99,31.09,10.99c12.29,0,22.19-3.52,29.42-10.46
					c7.22-6.94,10.89-16.98,10.89-29.84V408.9h-29.28v83.87c0,4.55-1.04,8.09-3.1,10.52c-2.08,2.44-5.04,3.68-8.81,3.68
					c-4.12,0-7.32-1.39-9.52-4.13c-2.11-2.64-3.21-6.52-3.27-11.56H106.92z"/>
			</g>
			<g>
				<path class="st0" d="M265.4,533.96c-9.78,0-18.66-1.94-26.39-5.78c-7.75-3.84-13.95-9.72-18.44-17.46
					c-4.49-7.73-6.76-17.27-6.76-28.36v-74.35h31.05v74.52c0,7.26,1.8,12.92,5.35,16.81c3.54,3.88,8.83,5.85,15.72,5.85
					c6.9,0,12.25-1.97,15.91-5.86c3.67-3.89,5.52-9.55,5.52-16.81v-74.52h31.05v74.35c0,11.08-2.4,20.6-7.12,28.28
					c-4.72,7.68-11.16,13.55-19.14,17.45C284.18,531.98,275.18,533.96,265.4,533.96z M214.69,408.9v73.46
					c0,10.93,2.24,20.32,6.64,27.91c4.4,7.59,10.48,13.35,18.07,17.11c7.6,3.77,16.35,5.69,26,5.69c9.65,0,18.51-1.94,26.35-5.78
					c7.83-3.82,14.14-9.58,18.78-17.12c4.64-7.54,6.99-16.9,6.99-27.81V408.9h-29.28v73.64c0,7.49-1.94,13.35-5.76,17.41
					c-3.83,4.07-9.4,6.14-16.55,6.14c-7.15,0-12.66-2.07-16.38-6.14c-3.7-4.06-5.58-9.92-5.58-17.41V408.9H214.69z"/>
			</g>
			<g>
				<path class="st0" d="M397.16,533.6c-12.25,0-23.33-2.72-32.94-8.08c-9.61-5.36-17.2-12.93-22.57-22.48
					c-5.36-9.54-8.08-20.6-8.08-32.85c0-12.25,2.72-23.33,8.08-32.94c5.36-9.61,12.93-17.2,22.48-22.57
					c9.55-5.36,20.6-8.08,32.85-8.08c14.84,0,27.53,3.65,37.73,10.84c10.21,7.2,17.06,17.32,20.37,30.06l0.14,0.55h-34.17
					l-0.13-0.23c-2.18-4.02-5.35-7.13-9.43-9.25c-4.09-2.13-8.98-3.21-14.52-3.21c-9.59,0-17.37,3.19-23.14,9.47
					c-5.77,6.3-8.7,14.83-8.7,25.37c0,11.23,3.07,20.12,9.14,26.42c6.06,6.29,14.52,9.48,25.17,9.48c7.28,0,13.51-1.87,18.52-5.56
					c4.87-3.58,8.52-8.77,10.85-15.43h-38.1v-23.11h66.5l-0.02,28.61c-2.24,7.55-6.1,14.67-11.46,21.14
					c-5.36,6.49-12.27,11.81-20.52,15.82C416.96,531.57,407.52,533.6,397.16,533.6z M396.98,407.49c-12.09,0-23,2.68-32.42,7.97
					c-9.41,5.29-16.86,12.77-22.14,22.23c-5.29,9.47-7.97,20.41-7.97,32.5c0,12.1,2.68,23.01,7.97,32.42
					c5.28,9.41,12.76,16.86,22.23,22.14c9.47,5.29,20.41,7.97,32.5,7.97c10.23,0,19.54-2,27.68-5.95
					c8.14-3.95,14.94-9.2,20.22-15.58c5.27-6.37,9.06-13.36,11.28-20.77v-27.54H391.6v21.34h38.45l-0.19,0.58
					c-2.37,7.11-6.2,12.65-11.36,16.44c-5.16,3.8-11.57,5.73-19.04,5.73c-10.9,0-19.58-3.28-25.81-9.75
					c-6.23-6.47-9.38-15.56-9.38-27.03c0-10.76,3.01-19.5,8.94-25.96c5.94-6.47,13.94-9.76,23.79-9.76c5.69,0,10.71,1.12,14.93,3.31
					c4.16,2.17,7.41,5.32,9.67,9.39h32.5c-3.31-12.27-9.99-22.03-19.88-29.01C424.16,411.08,411.63,407.49,396.98,407.49z"/>
			</g>
			<g>
				<path class="st0" d="M590.57,532.72H557.7l-7.41-21.87h-45.58l-7.41,21.87h-32.52l0.21-0.59l44.91-124.12h35.54l0.11,0.29
					L590.57,532.72z M558.34,531.84h30.98L544.83,408.9h-34.3l-44.48,122.94h30.63l7.41-21.87h46.85L558.34,531.84z M543.47,487.57
					h-31.74l15.78-47.16L543.47,487.57z M512.95,486.68h29.28l-14.73-43.5L512.95,486.68z"/>
			</g>
			<g>
				<path class="st0" d="M649.92,532.72h-46.83V408.01h46.83c13.06,0,24.64,2.63,34.43,7.81l0,0c9.79,5.19,17.47,12.58,22.84,21.95
					c5.36,9.37,8.08,20.34,8.08,32.59c0,12.13-2.72,23.07-8.08,32.5c-5.37,9.44-13.08,16.85-22.93,22.04
					C674.42,530.09,662.87,532.72,649.92,532.72z M603.97,531.84h45.95c12.8,0,24.22-2.59,33.92-7.71
					c9.7-5.11,17.29-12.41,22.58-21.7c5.29-9.3,7.97-20.08,7.97-32.06c0-12.09-2.68-22.91-7.97-32.15
					c-5.28-9.23-12.85-16.5-22.49-21.61c-9.65-5.12-21.1-7.71-34.01-7.71h-45.95V531.84z M647.98,506.62h-14.73v-72.85h14.73
					c11.47,0,20.54,3.25,26.95,9.66c6.41,6.41,9.66,15.47,9.66,26.95c0,11.48-3.25,20.48-9.66,26.77l0,0
					C668.52,503.43,659.45,506.62,647.98,506.62z M634.13,505.73h13.85c11.24,0,20.09-3.1,26.32-9.22l0,0
					c6.23-6.12,9.39-14.91,9.39-26.14c0-11.23-3.16-20.09-9.4-26.32c-6.23-6.23-15.09-9.4-26.32-9.4h-13.85V505.73z"/>
			</g>
			<g>
				<path class="st0" d="M790.32,533.96c-11.66,0-22.51-2.75-32.23-8.17l0,0c-9.73-5.42-17.56-13.1-23.27-22.83
					c-5.72-9.72-8.62-20.8-8.62-32.94c0-12.14,2.9-23.19,8.62-32.86c5.71-9.66,13.54-17.31,23.27-22.74
					c9.72-5.42,20.57-8.17,32.23-8.17c11.66,0,22.5,2.75,32.23,8.17c9.72,5.42,17.5,13.07,23.1,22.74
					c5.6,9.67,8.44,20.72,8.44,32.85c0,12.14-2.87,23.22-8.53,32.94c-5.66,9.73-13.43,17.41-23.1,22.83
					C812.8,531.21,801.98,533.96,790.32,533.96z M790.32,407.13c-11.51,0-22.21,2.71-31.8,8.06c-9.59,5.35-17.31,12.89-22.94,22.42
					c-5.64,9.52-8.49,20.43-8.49,32.41c0,11.98,2.86,22.91,8.49,32.5c5.63,9.59,13.35,17.16,22.94,22.5l0,0
					c9.59,5.35,20.29,8.06,31.8,8.06s22.18-2.71,31.71-8.06c9.53-5.34,17.19-12.91,22.77-22.5c5.58-9.59,8.41-20.52,8.41-32.5
					c0-11.97-2.8-22.88-8.32-32.41c-5.52-9.53-13.18-17.07-22.76-22.41C812.53,409.84,801.83,407.13,790.32,407.13z M790.32,506.44
					c-10.08,0-18.23-3.34-24.23-9.93c-5.99-6.58-9.02-15.49-9.02-26.49c0-11.12,3.04-20.06,9.02-26.58c6-6.53,14.15-9.84,24.23-9.84
					c9.96,0,18.05,3.34,24.05,9.93c5.99,6.58,9.02,15.49,9.02,26.49c0,10.88-3.04,19.76-9.02,26.4l0,0
					C808.37,503.07,800.28,506.44,790.32,506.44z M790.32,434.47c-9.82,0-17.75,3.22-23.58,9.56c-5.83,6.35-8.79,15.09-8.79,25.98
					c0,10.77,2.96,19.49,8.79,25.9c5.82,6.4,13.75,9.65,23.57,9.65c9.7,0,17.57-3.27,23.39-9.73l0,0
					c5.84-6.47,8.79-15.15,8.79-25.81c0-10.77-2.96-19.48-8.79-25.9C807.89,437.72,800.02,434.47,790.32,434.47z"/>
			</g>
			<g>
				<path class="st0" d="M968.36,532.72h-35.07l-25.75-46.74H901v46.74h-31.05V408.01h51.06c9.78,0,18.25,1.74,25.16,5.16
					c6.92,3.44,12.18,8.21,15.62,14.2c3.43,5.98,5.17,12.73,5.17,20.06c0,8.29-2.37,15.79-7.05,22.31
					c-4.59,6.39-11.4,11.02-20.25,13.76L968.36,532.72z M933.81,531.84h33.01l-28.47-48.86l0.54-0.16
					c8.91-2.66,15.75-7.23,20.32-13.59c4.57-6.36,6.88-13.69,6.88-21.79c0-7.18-1.7-13.78-5.06-19.62
					c-3.35-5.83-8.48-10.49-15.25-13.85c-6.79-3.36-15.12-5.07-24.76-5.07h-50.18v122.94h29.28v-46.74h7.93L933.81,531.84z
					 M919.26,464.64h-19.14v-31.58h19.14c5.62,0,9.91,1.41,12.74,4.18c2.84,2.78,4.28,6.63,4.28,11.43c0,5.04-1.44,9-4.28,11.78
					C929.17,463.23,924.88,464.64,919.26,464.64z M901,463.75h18.26c5.38,0,9.46-1.32,12.13-3.93c2.66-2.61,4.01-6.36,4.01-11.15
					c0-4.56-1.35-8.19-4.01-10.8c-2.66-2.61-6.74-3.93-12.13-3.93H901V463.75z"/>
			</g>
		</g>
		<g>
			<g>
				<path class="st0" d="M352.04,375.68H300.2V252.22l-46.04,123.46h-41.74l-0.11-0.29l-46.23-123.48v123.76h-51.85V165.59h60.94
					l0.11,0.28l58.3,143.82l57.82-144.1h60.64V375.68z M301.08,374.8h50.08V166.47H292l-58.41,145.58l-0.41-1.02l-58.6-144.56
					h-59.46V374.8h50.08V247.03l47.83,127.76h40.51l47.54-127.47V374.8z"/>
			</g>
			<g>
				<path class="st0" d="M473.78,377.77c-16.49,0-31.44-3.27-44.45-9.73c-13.03-6.46-23.47-16.35-31.03-29.38
					c-7.56-13.01-11.39-29.08-11.39-47.76V165.59h51.85V291.2c0,12.35,3.07,21.98,9.12,28.61c6.04,6.63,15.05,9.99,26.79,9.99
					s20.85-3.36,27.1-10c6.25-6.64,9.42-16.26,9.42-28.6V165.59h51.85V290.9c0,18.67-4.03,34.69-11.99,47.62
					c-7.95,12.93-18.79,22.81-32.22,29.37C505.42,374.44,490.27,377.77,473.78,377.77z M387.8,166.47V290.9
					c0,18.52,3.79,34.43,11.27,47.31c7.47,12.88,17.78,22.64,30.66,29.03c12.89,6.4,27.71,9.64,44.06,9.64
					c16.35,0,31.38-3.29,44.66-9.79c13.27-6.49,23.99-16.26,31.85-29.04c7.87-12.79,11.86-28.65,11.86-47.15V166.47h-50.08V291.2
					c0,12.58-3.25,22.4-9.66,29.21c-6.41,6.82-15.75,10.27-27.74,10.27c-12,0-21.23-3.46-27.44-10.28
					c-6.21-6.8-9.35-16.63-9.35-29.21V166.47H387.8z"/>
			</g>
			<g>
				<path class="st0" d="M716.51,375.68h-118.6V165.59h51.85v169.87h66.76V375.68z M598.79,374.8h116.83v-38.46h-66.76V166.47
					h-50.08V374.8z"/>
			</g>
			<g>
				<path class="st0" d="M836.01,375.68h-51.85V207.3h-55.43v-41.71h162.71v41.71h-55.43V375.68z M785.05,374.8h50.08V206.42h55.43
					v-39.94H729.62v39.94h55.43V374.8z"/>
			</g>
			<g>
				<path class="st0" d="M968.03,375.68h-51.85V165.59h51.85V375.68z M917.07,374.8h50.08V166.47h-50.08V374.8z"/>
			</g>
		</g>
	</g>
	<g>
		<g>
			<g>
				<path class="st0" d="M195.33,400.68v84.31c0,13.05-3.68,23.11-11.02,30.16c-7.35,7.06-17.26,10.58-29.72,10.58
					c-13.05,0-23.52-3.7-31.4-11.11c-7.88-7.41-11.82-17.93-11.82-31.57h29.99c0,5.18,1.06,9.08,3.17,11.73
					c2.12,2.65,5.17,3.97,9.17,3.97c3.65,0,6.47-1.17,8.47-3.53c2-2.35,3-5.76,3-10.23v-84.31H195.33z"/>
			</g>
			<g>
				<path class="st0" d="M249.3,400.68v74.08c0,7.41,1.82,13.11,5.47,17.11c3.64,4,9,6,16.05,6c7.06,0,12.46-2,16.23-6
					c3.76-4,5.64-9.7,5.64-17.11v-74.08h30.16v73.91c0,11.05-2.35,20.4-7.06,28.05c-4.7,7.65-11.02,13.41-18.96,17.29
					c-7.94,3.88-16.79,5.82-26.55,5.82c-9.76,0-18.49-1.91-26.19-5.73c-7.7-3.82-13.79-9.58-18.26-17.29
					c-4.47-7.7-6.7-17.08-6.7-28.13v-73.91H249.3z"/>
			</g>
			<g>
				<path class="st0" d="M426.22,439.84c-2.24-4.11-5.44-7.26-9.61-9.44c-4.18-2.18-9.08-3.26-14.73-3.26
					c-9.76,0-17.58,3.2-23.46,9.61c-5.88,6.41-8.82,14.97-8.82,25.66c0,11.41,3.09,20.31,9.26,26.72
					c6.17,6.41,14.67,9.61,25.49,9.61c7.41,0,13.67-1.88,18.78-5.64c5.12-3.76,8.85-9.17,11.2-16.23h-38.28v-22.22h65.61v28.05
					c-2.24,7.53-6.03,14.52-11.38,20.99c-5.35,6.47-12.14,11.7-20.37,15.7c-8.23,4-17.52,6-27.87,6c-12.23,0-23.14-2.67-32.72-8.03
					c-9.59-5.35-17.05-12.79-22.4-22.31c-5.35-9.53-8.03-20.4-8.03-32.63c0-12.23,2.67-23.13,8.03-32.72
					c5.35-9.58,12.79-17.05,22.31-22.4c9.53-5.35,20.4-8.03,32.63-8.03c14.82,0,27.31,3.59,37.48,10.76
					c10.17,7.17,16.9,17.11,20.2,29.81H426.22z"/>
			</g>
			<g>
				<path class="st0" d="M555.5,502.63h-46.21l-7.41,21.87h-31.57l44.8-123.82h34.92l44.8,123.82h-31.93L555.5,502.63z
					 M547.74,479.35l-15.35-45.33l-15.17,45.33H547.74z"/>
			</g>
			<g>
				<path class="st0" d="M689.03,408.44c9.76,5.18,17.31,12.43,22.67,21.78c5.35,9.35,8.03,20.14,8.03,32.37
					c0,12.11-2.68,22.87-8.03,32.28c-5.35,9.41-12.94,16.7-22.75,21.87c-9.82,5.18-21.2,7.76-34.13,7.76h-46.39V400.68h46.39
					C667.86,400.68,679.27,403.27,689.03,408.44z M679.5,489.05c6.35-6.23,9.53-15.05,9.53-26.46c0-11.4-3.18-20.28-9.53-26.63
					c-6.35-6.35-15.23-9.53-26.63-9.53h-14.29v71.97h14.29C664.28,498.4,673.16,495.28,679.5,489.05z"/>
			</g>
			<g>
				<path class="st0" d="M763.2,517.62c-9.7-5.41-17.41-12.96-23.11-22.67c-5.71-9.7-8.55-20.61-8.55-32.72
					c0-12.11,2.85-22.99,8.55-32.63c5.7-9.64,13.41-17.17,23.11-22.58c9.7-5.41,20.37-8.11,32.01-8.11s22.31,2.71,32.01,8.11
					c9.7,5.41,17.34,12.94,22.93,22.58c5.58,9.64,8.38,20.52,8.38,32.63c0,12.11-2.82,23.02-8.47,32.72
					c-5.64,9.7-13.29,17.26-22.93,22.67c-9.64,5.41-20.28,8.11-31.93,8.11S772.9,523.03,763.2,517.62z M818.93,488.34
					c5.94-6.58,8.91-15.28,8.91-26.11c0-10.94-2.97-19.67-8.91-26.19c-5.94-6.53-13.84-9.79-23.72-9.79c-10,0-17.96,3.24-23.9,9.7
					c-5.94,6.47-8.91,15.23-8.91,26.28c0,10.94,2.97,19.67,8.91,26.19c5.94,6.53,13.9,9.79,23.9,9.79
					C805.09,498.22,813,494.93,818.93,488.34z"/>
			</g>
			<g>
				<path class="st0" d="M938.44,524.5l-25.75-46.74h-7.23v46.74h-30.16V400.68h50.62c9.76,0,18.08,1.71,24.96,5.11
					c6.88,3.41,12.02,8.09,15.43,14.02c3.41,5.94,5.11,12.55,5.11,19.84c0,8.23-2.32,15.58-6.97,22.05
					c-4.65,6.47-11.5,11.05-20.55,13.76l28.58,49.03H938.44z M905.45,456.42h18.7c5.53,0,9.67-1.35,12.43-4.06
					c2.76-2.7,4.15-6.53,4.15-11.47c0-4.7-1.38-8.41-4.15-11.11c-2.76-2.7-6.91-4.06-12.43-4.06h-18.7V456.42z"/>
			</g>
		</g>
		<g>
			<g>
				<path class="st0" d="M356.49,158.26v209.21h-50.96V242l-46.79,125.46h-41.13L170.53,241.7v125.76h-50.96V158.26h60.2
					l58.71,144.84l58.11-144.84H356.49z"/>
			</g>
			<g>
				<path class="st0" d="M443.21,158.26v125.16c0,12.52,3.08,22.16,9.24,28.91c6.16,6.76,15.2,10.14,27.12,10.14
					c11.92,0,21.06-3.38,27.42-10.14c6.36-6.75,9.54-16.39,9.54-28.91V158.26h50.96v124.87c0,18.68-3.98,34.47-11.92,47.38
					c-7.95,12.92-18.62,22.65-32.04,29.2c-13.41,6.56-28.36,9.84-44.85,9.84c-16.49,0-31.24-3.23-44.25-9.69
					c-13.02-6.46-23.3-16.19-30.84-29.2c-7.55-13.01-11.33-28.86-11.33-47.53V158.26H443.21z"/>
			</g>
			<g>
				<path class="st0" d="M654.21,328.12h66.76v39.34H603.25V158.26h50.96V328.12z"/>
			</g>
			<g>
				<path class="st0" d="M895.9,158.26v40.83h-55.43v168.38H789.5V199.08h-55.43v-40.83H895.9z"/>
			</g>
			<g>
				<path class="st0" d="M972.48,158.26v209.21h-50.96V158.26H972.48z"/>
			</g>
		</g>
	</g>
	<g>
		<g>
			<g>
				<path class="st0" d="M160.63,518.98c-13.11,0-23.77-3.78-31.7-11.23c-7.93-7.46-11.96-18.19-11.96-31.89v-0.44h30.87v0.44
					c0,5.05,1.04,8.9,3.08,11.45c2.02,2.52,4.99,3.8,8.83,3.8c3.49,0,6.23-1.13,8.13-3.37c1.92-2.26,2.89-5.6,2.89-9.94v-84.75
					h31.05v84.75c0,13.11-3.75,23.37-11.16,30.48C183.26,515.38,173.15,518.98,160.63,518.98z M117.86,476.3
					c0.09,13.24,4.01,23.6,11.68,30.81c7.75,7.29,18.22,10.99,31.09,10.99c12.29,0,22.19-3.52,29.41-10.46
					c7.22-6.94,10.89-16.98,10.89-29.84v-83.87h-29.28v83.87c0,4.55-1.04,8.09-3.1,10.52c-2.08,2.44-5.04,3.68-8.81,3.68
					c-4.12,0-7.32-1.39-9.52-4.13c-2.11-2.64-3.21-6.52-3.27-11.56H117.86z"/>
			</g>
			<g>
				<path class="st0" d="M276.34,518.98c-9.79,0-18.67-1.94-26.39-5.78c-7.75-3.84-13.95-9.72-18.44-17.46
					c-4.49-7.73-6.76-17.27-6.76-28.36v-74.35h31.05v74.52c0,7.26,1.8,12.92,5.35,16.81c3.54,3.88,8.83,5.85,15.72,5.85
					c6.9,0,12.25-1.97,15.9-5.86c3.67-3.89,5.52-9.55,5.52-16.81v-74.52h31.05v74.35c0,11.08-2.4,20.6-7.12,28.28
					c-4.72,7.68-11.17,13.55-19.14,17.45C295.12,517.01,286.12,518.98,276.34,518.98z M225.63,393.93v73.46
					c0,10.93,2.24,20.32,6.64,27.91c4.4,7.59,10.48,13.35,18.07,17.11c7.6,3.77,16.35,5.69,26,5.69c9.65,0,18.52-1.94,26.35-5.78
					c7.83-3.82,14.14-9.58,18.78-17.12c4.64-7.54,6.99-16.9,6.99-27.81v-73.46h-29.28v73.64c0,7.49-1.94,13.35-5.76,17.41
					c-3.83,4.07-9.4,6.14-16.55,6.14c-7.15,0-12.66-2.07-16.38-6.14c-3.71-4.06-5.58-9.92-5.58-17.41v-73.64H225.63z"/>
			</g>
			<g>
				<path class="st0" d="M408.1,518.63c-12.25,0-23.33-2.72-32.93-8.08c-9.61-5.36-17.21-12.93-22.57-22.48
					c-5.36-9.54-8.08-20.59-8.08-32.85c0-12.25,2.72-23.33,8.08-32.94c5.36-9.61,12.93-17.2,22.48-22.57
					c9.55-5.36,20.6-8.08,32.85-8.08c14.84,0,27.53,3.65,37.73,10.84c10.21,7.2,17.07,17.32,20.37,30.06l0.14,0.55H432l-0.13-0.23
					c-2.18-4.01-5.35-7.13-9.43-9.25c-4.09-2.13-8.98-3.21-14.52-3.21c-9.59,0-17.37,3.19-23.14,9.47
					c-5.77,6.29-8.7,14.83-8.7,25.37c0,11.23,3.07,20.12,9.14,26.42c6.06,6.29,14.53,9.48,25.17,9.48c7.28,0,13.51-1.87,18.52-5.56
					c4.87-3.58,8.52-8.77,10.85-15.43h-38.1v-23.11h66.5l-0.02,28.61c-2.24,7.55-6.1,14.67-11.46,21.14
					c-5.36,6.49-12.27,11.81-20.52,15.82C427.9,516.6,418.46,518.63,408.1,518.63z M407.92,392.51c-12.09,0-23,2.68-32.42,7.97
					c-9.41,5.29-16.86,12.77-22.14,22.23c-5.29,9.47-7.97,20.41-7.97,32.51c0,12.1,2.68,23.01,7.97,32.41
					c5.28,9.41,12.76,16.86,22.23,22.14c9.47,5.29,20.41,7.97,32.5,7.97c10.23,0,19.54-2,27.68-5.95
					c8.14-3.95,14.94-9.2,20.22-15.58c5.27-6.37,9.07-13.36,11.28-20.77V447.9h-64.73v21.34h38.45l-0.19,0.58
					c-2.37,7.11-6.19,12.65-11.36,16.44c-5.16,3.8-11.57,5.73-19.05,5.73c-10.89,0-19.58-3.28-25.81-9.75
					c-6.23-6.46-9.38-15.56-9.38-27.03c0-10.77,3.01-19.5,8.93-25.96c5.94-6.47,13.94-9.76,23.79-9.76c5.69,0,10.71,1.12,14.93,3.31
					c4.16,2.17,7.41,5.33,9.67,9.39h32.5c-3.3-12.27-9.99-22.03-19.88-29C435.1,396.11,422.57,392.51,407.92,392.51z"/>
			</g>
			<g>
				<path class="st0" d="M601.51,517.75h-32.87l-7.41-21.87h-45.58l-7.41,21.87h-32.52l0.21-0.59l44.91-124.12h35.54l0.11,0.29
					L601.51,517.75z M569.27,516.87h30.98l-44.48-122.94h-34.31l-44.48,122.94h30.63l7.41-21.87h46.85L569.27,516.87z M554.4,472.59
					h-31.74l15.78-47.16L554.4,472.59z M523.89,471.71h29.28l-14.73-43.5L523.89,471.71z"/>
			</g>
			<g>
				<path class="st0" d="M660.86,517.75h-46.83V393.04h46.83c13.06,0,24.64,2.63,34.43,7.81l0,0c9.79,5.19,17.47,12.58,22.84,21.95
					c5.36,9.37,8.08,20.34,8.08,32.59c0,12.13-2.72,23.07-8.08,32.5c-5.37,9.44-13.08,16.85-22.93,22.04
					C685.36,515.12,673.81,517.75,660.86,517.75z M614.91,516.87h45.95c12.8,0,24.22-2.59,33.92-7.71
					c9.7-5.11,17.29-12.41,22.58-21.7c5.29-9.3,7.97-20.08,7.97-32.06c0-12.09-2.68-22.91-7.97-32.15
					c-5.28-9.23-12.85-16.5-22.49-21.61c-9.65-5.12-21.1-7.71-34.01-7.71h-45.95V516.87z M658.92,491.64h-14.73v-72.85h14.73
					c11.47,0,20.54,3.25,26.95,9.66c6.41,6.41,9.65,15.47,9.65,26.95c0,11.48-3.25,20.48-9.66,26.77
					C679.46,488.46,670.39,491.64,658.92,491.64z M645.07,490.76h13.85c11.24,0,20.09-3.1,26.32-9.22l0,0
					c6.23-6.12,9.39-14.91,9.39-26.14c0-11.23-3.16-20.09-9.4-26.32c-6.24-6.23-15.09-9.4-26.32-9.4h-13.85V490.76z"/>
			</g>
			<g>
				<path class="st0" d="M801.26,518.98c-11.66,0-22.51-2.75-32.23-8.17c-9.73-5.42-17.56-13.1-23.27-22.83
					c-5.72-9.72-8.62-20.81-8.62-32.94c0-12.14,2.9-23.19,8.62-32.86c5.72-9.66,13.55-17.32,23.27-22.74
					c9.72-5.42,20.57-8.17,32.23-8.17c11.66,0,22.5,2.75,32.23,8.17c9.73,5.42,17.5,13.07,23.1,22.74
					c5.6,9.67,8.44,20.72,8.44,32.85c0,12.14-2.87,23.22-8.53,32.94c-5.66,9.73-13.43,17.41-23.1,22.83
					C823.74,516.23,812.92,518.98,801.26,518.98z M801.26,392.16c-11.51,0-22.21,2.71-31.8,8.06c-9.59,5.35-17.31,12.89-22.94,22.42
					c-5.64,9.52-8.49,20.43-8.49,32.4c0,11.98,2.86,22.91,8.49,32.5c5.64,9.59,13.35,17.16,22.94,22.5l0,0
					c9.59,5.35,20.29,8.06,31.8,8.06c11.51,0,22.18-2.71,31.71-8.06c9.53-5.34,17.19-12.91,22.76-22.5
					c5.58-9.59,8.41-20.52,8.41-32.5c0-11.97-2.8-22.88-8.32-32.41c-5.52-9.53-13.18-17.07-22.76-22.41
					C823.46,394.87,812.77,392.16,801.26,392.16z M801.26,491.47c-10.08,0-18.23-3.34-24.23-9.93c-5.99-6.58-9.02-15.49-9.02-26.49
					c0-11.11,3.04-20.06,9.02-26.58c6-6.53,14.15-9.84,24.23-9.84c9.96,0,18.05,3.34,24.05,9.93c5.99,6.58,9.02,15.49,9.02,26.49
					c0,10.88-3.04,19.76-9.02,26.4l0,0C819.31,488.09,811.22,491.47,801.26,491.47z M801.26,419.5c-9.82,0-17.75,3.22-23.57,9.56
					c-5.83,6.35-8.79,15.1-8.79,25.98c0,10.77,2.96,19.49,8.79,25.9c5.82,6.4,13.75,9.64,23.57,9.64c9.7,0,17.58-3.27,23.39-9.73
					l0,0c5.84-6.47,8.8-15.15,8.8-25.81c0-10.77-2.96-19.48-8.79-25.89C818.83,422.75,810.96,419.5,801.26,419.5z"/>
			</g>
			<g>
				<path class="st0" d="M979.3,517.75h-35.07l-25.75-46.74h-6.53v46.74h-31.05V393.04h51.06c9.78,0,18.25,1.74,25.16,5.16
					c6.92,3.44,12.18,8.21,15.62,14.2c3.43,5.98,5.17,12.73,5.17,20.06c0,8.29-2.37,15.79-7.05,22.31
					c-4.59,6.39-11.4,11.02-20.25,13.76L979.3,517.75z M944.75,516.87h33.01l-28.47-48.86l0.54-0.16
					c8.91-2.66,15.75-7.24,20.32-13.59c4.57-6.36,6.88-13.69,6.88-21.79c0-7.18-1.7-13.78-5.06-19.62
					c-3.35-5.83-8.48-10.49-15.25-13.85c-6.79-3.36-15.12-5.07-24.76-5.07h-50.18v122.94h29.28v-46.74h7.93L944.75,516.87z
					 M930.2,449.66h-19.14v-31.58h19.14c5.62,0,9.91,1.41,12.74,4.18c2.84,2.78,4.28,6.63,4.28,11.43c0,5.04-1.44,9-4.28,11.78
					C940.11,448.26,935.82,449.66,930.2,449.66z M911.94,448.78h18.26c5.38,0,9.46-1.32,12.13-3.93c2.66-2.61,4.01-6.36,4.01-11.15
					c0-4.56-1.35-8.19-4.01-10.8c-2.67-2.61-6.75-3.93-12.13-3.93h-18.26V448.78z"/>
			</g>
		</g>
		<g>
			<g>
				<path class="st0" d="M362.98,360.71h-51.85V237.25l-46.04,123.46h-41.74l-0.11-0.29l-46.23-123.48v123.77h-51.85V150.62h60.94
					l0.11,0.28l58.3,143.82l57.81-144.1h60.64V360.71z M312.02,359.83h50.08V151.5h-59.16l-58.41,145.58l-0.41-1.02l-58.6-144.56
					h-59.46v208.32h50.08V232.06l47.83,127.76h40.51l47.54-127.47V359.83z"/>
			</g>
			<g>
				<path class="st0" d="M484.72,362.8c-16.49,0-31.44-3.27-44.45-9.73c-13.03-6.46-23.47-16.35-31.03-29.38
					c-7.56-13.01-11.39-29.08-11.39-47.76V150.62h51.85v125.61c0,12.35,3.07,21.98,9.12,28.61c6.04,6.63,15.05,9.99,26.79,9.99
					c11.74,0,20.85-3.36,27.09-10c6.25-6.64,9.42-16.26,9.42-28.61V150.62h51.85v125.31c0,18.67-4.03,34.69-11.99,47.62
					c-7.95,12.93-18.79,22.81-32.22,29.37C516.36,359.47,501.21,362.8,484.72,362.8z M398.74,151.5v124.43
					c0,18.52,3.79,34.44,11.27,47.31c7.47,12.88,17.78,22.65,30.66,29.03c12.89,6.4,27.71,9.64,44.06,9.64
					c16.35,0,31.37-3.29,44.66-9.79c13.27-6.49,23.99-16.26,31.85-29.04c7.87-12.79,11.86-28.65,11.86-47.15V151.5h-50.08v124.72
					c0,12.58-3.25,22.4-9.66,29.21c-6.41,6.82-15.75,10.27-27.74,10.27c-12,0-21.23-3.46-27.44-10.28
					c-6.21-6.8-9.36-16.63-9.36-29.21V151.5H398.74z"/>
			</g>
			<g>
				<path class="st0" d="M727.45,360.71h-118.6V150.62h51.84v169.87h66.76V360.71z M609.73,359.83h116.83v-38.46h-66.76V151.5
					h-50.08V359.83z"/>
			</g>
			<g>
				<path class="st0" d="M846.95,360.71h-51.85V192.33h-55.43v-41.71h162.71v41.71h-55.43V360.71z M795.99,359.83h50.08V191.44
					h55.43V151.5H740.56v39.94h55.43V359.83z"/>
			</g>
			<g>
				<path class="st0" d="M978.97,360.71h-51.85V150.62h51.85V360.71z M928.01,359.83h50.08V151.5h-50.08V359.83z"/>
			</g>
		</g>
	</g>
</g>
</svg>
