<?xml version="1.0" encoding="utf-8"?>
<!-- Generator: Adobe Illustrator 25.4.1, SVG Export Plug-In . SVG Version: 6.00 Build 0)  -->
<svg version="1.1" id="Capa_1" xmlns="http://www.w3.org/2000/svg" xmlns:xlink="http://www.w3.org/1999/xlink" x="0px" y="0px"
	 viewBox="0 0 1727.57 219.64" style="enable-background:new 0 0 1727.57 219.64;" xml:space="preserve">
<style type="text/css">
	.st0{enable-background:new    ;}
	.st1{fill:#00FFB0;}
</style>
<g class="st0">
	<path class="st1" d="M81.06,54.2h9.32l30,84.75V54.2h6.41v101.93h-7.43L87.47,64.97v91.15h-6.41V54.2z"/>
	<path class="st1" d="M141.05,134.43V105.6c0-14.85,7.13-23.15,20.39-23.15s20.39,8.3,20.39,23.15v28.83
		c0,14.85-7.14,23.15-20.39,23.15S141.05,149.28,141.05,134.43z M175.27,135.01v-30c0-10.63-4.37-16.75-13.83-16.75
		s-13.83,6.12-13.83,16.75v30c0,10.63,4.37,16.75,13.83,16.75S175.27,145.64,175.27,135.01z"/>
	<path class="st1" d="M207.3,89.58v52.28c0,7.14,2.33,9.9,8.3,9.9c2.33,0,4.51-0.29,6.99-1.46v5.82c-2.62,1.17-4.66,1.46-7.86,1.46
		c-9.46,0-13.98-5.1-13.98-15.29V89.58h-9.61V83.9h9.76l0.87-22.13h5.53V83.9h15.29v5.68H207.3z"/>
	<path class="st1" d="M233.66,57.55h6.55v14.56h-6.55V57.55z M233.66,83.9h6.55v72.22h-6.55V83.9z"/>
	<path class="st1" d="M254.63,134.72v-29.41c0-14.85,6.99-22.86,20.24-22.86c13.4,0,19.8,8.3,19.8,22.86v1.89h-6.26v-2.48
		c0-10.78-4.22-16.45-13.54-16.45s-13.69,5.68-13.69,16.45v30.58c0,10.63,4.37,16.46,13.69,16.46s13.54-5.83,13.54-16.46v-4.08h6.26
		v3.5c0,14.56-6.41,22.86-19.8,22.86C261.62,157.58,254.63,149.43,254.63,134.72z"/>
	<path class="st1" d="M307.63,57.55h6.55v14.56h-6.55V57.55z M307.63,83.9h6.55v72.22h-6.55V83.9z"/>
	<path class="st1" d="M362.53,156.13c-0.58-2.18-0.87-6.26-1.02-11.07c-3.2,8.01-9.61,12.52-18.35,12.52
		c-10.34,0-16.45-6.7-16.45-17.47c0-10.92,4.95-17.18,18.49-23.15c13.69-5.97,15.58-7.57,15.58-13.4v-2.04
		c0-8.45-4.66-13.25-12.67-13.25s-13.54,4.66-13.54,13.83v1.6h-6.12v-1.31c0-12.96,7.86-19.95,19.8-19.95
		c12.52,0,18.93,7.13,18.93,19.95v35.24c0,8.01,0.44,14.42,1.46,18.49H362.53z M360.78,130.94v-16.89
		c-1.46,2.48-5.1,4.37-13.69,8.16c-9.9,4.37-13.83,9.46-13.83,17.33c0,7.72,4.08,12.23,11.5,12.23
		C354.37,151.76,360.78,143.75,360.78,130.94z"/>
	<path class="st1" d="M379.56,138.07v-2.62h6.26v2.77c0,9.03,5.24,13.54,13.4,13.54c8.01,0,13.4-4.37,13.4-13.25
		c0-8.88-7.14-12.52-14.56-16.02c-8.59-4.08-17.77-8.45-17.77-21.55c0-11.36,7.28-18.49,18.64-18.49c11.21,0,18.78,7.13,18.78,19.22
		v1.31h-6.12v-1.46c0-8.88-5.24-13.25-12.52-13.25c-6.99,0-12.52,4.37-12.52,12.67c0,8.88,6.99,12.23,14.71,15.87
		c8.59,4.08,17.76,8.59,17.76,21.7c0,11.94-7.28,19.08-19.51,19.08C387.13,157.58,379.56,150.45,379.56,138.07z"/>
	<path class="st1" d="M496.49,103.12v33.64c0,13.98-6.26,20.82-17.33,20.82c-7.57,0-13.54-3.93-16.89-10.78v31.89h-6.55V83.9h5.53
		l0.15,11.21c3.2-8.01,9.61-12.67,17.77-12.67C490.23,82.45,496.49,89.14,496.49,103.12z M489.93,103.85
		c0-9.9-3.79-15.58-12.23-15.58c-8.88,0-15.44,7.86-15.44,20.68v22.13c0,12.81,6.55,20.68,15.44,20.68
		c8.45,0,12.23-5.68,12.23-15.58V103.85z"/>
	<path class="st1" d="M543.66,156.13c-0.58-2.18-0.87-6.26-1.02-11.07c-3.2,8.01-9.61,12.52-18.35,12.52
		c-10.34,0-16.45-6.7-16.45-17.47c0-10.92,4.95-17.18,18.49-23.15c13.69-5.97,15.58-7.57,15.58-13.4v-2.04
		c0-8.45-4.66-13.25-12.67-13.25s-13.54,4.66-13.54,13.83v1.6h-6.12v-1.31c0-12.96,7.86-19.95,19.8-19.95
		c12.52,0,18.93,7.13,18.93,19.95v35.24c0,8.01,0.44,14.42,1.46,18.49H543.66z M541.92,130.94v-16.89
		c-1.46,2.48-5.1,4.37-13.69,8.16c-9.9,4.37-13.83,9.46-13.83,17.33c0,7.72,4.08,12.23,11.5,12.23
		C535.51,151.76,541.92,143.75,541.92,130.94z"/>
	<path class="st1" d="M590.7,83.32v6.55c-1.6-0.73-3.06-1.02-4.95-1.02c-10.34,0-15.44,8.01-15.44,24.75v42.52h-6.55V83.9h5.53
		l0.15,11.65c2.77-8.88,8.3-13.1,16.16-13.1C587.49,82.45,589.09,82.59,590.7,83.32z"/>
	<path class="st1" d="M632.63,156.13c-0.58-2.18-0.87-6.26-1.02-11.07c-3.2,8.01-9.61,12.52-18.35,12.52
		c-10.34,0-16.45-6.7-16.45-17.47c0-10.92,4.95-17.18,18.49-23.15c13.69-5.97,15.58-7.57,15.58-13.4v-2.04
		c0-8.45-4.66-13.25-12.67-13.25s-13.54,4.66-13.54,13.83v1.6h-6.12v-1.31c0-12.96,7.86-19.95,19.8-19.95
		c12.52,0,18.93,7.13,18.93,19.95v35.24c0,8.01,0.44,14.42,1.46,18.49H632.63z M630.89,130.94v-16.89
		c-1.46,2.48-5.1,4.37-13.69,8.16c-9.9,4.37-13.83,9.46-13.83,17.33c0,7.72,4.08,12.23,11.5,12.23
		C624.48,151.76,630.89,143.75,630.89,130.94z"/>
</g>
<g class="st0">
	<path class="st1" d="M719.27,81.86v75.28c0,14.27-5.53,23.01-22.86,23.01c-14.71,0-22.13-7.13-22.13-19.95v-0.44h14.85v1.17
		c0,3.93,2.18,6.55,6.99,6.55c5.24,0,7.72-2.62,7.72-9.17V147.1c-3.06,4.37-7.57,6.84-13.11,6.84c-10.34,0-16.89-6.41-16.89-21.7
		V102.1c0-15.29,6.55-21.7,16.89-21.7c6.7,0,12.23,3.79,14.85,10.19l0.29-8.74H719.27z M703.84,128.31v-22.28
		c0-8.74-3.64-11.94-8.01-11.94c-5.1,0-6.55,3.93-6.55,9.03v28.1c0,5.1,1.46,9.03,6.55,9.03
		C700.2,140.26,703.84,137.05,703.84,128.31z"/>
	<path class="st1" d="M761.21,156.13c-0.44-0.87-1.02-4.08-1.17-8.74c-2.77,6.55-8.3,10.19-15.73,10.19
		c-9.9,0-16.16-7.13-16.16-18.64c0-11.65,4.81-18.35,17.91-24.75c10.63-5.24,12.09-6.55,12.09-10.63v-1.46
		c0-5.97-1.89-8.45-6.26-8.45c-4.81,0-6.99,3.06-6.99,8.59v2.77h-14.56v-1.89c0-14.42,7.43-22.72,21.7-22.72
		c15.44,0,21.55,8.15,21.55,24.46v29.85c0,10.48,0.73,17.18,1.75,21.41H761.21z M758.15,131.96v-12.67
		c-1.16,1.46-3.49,2.91-7.57,5.53c-4.66,2.91-6.99,6.7-6.99,11.5c0,5.24,2.18,8.01,6.55,8.01
		C755.38,144.33,758.15,140.11,758.15,131.96z"/>
	<path class="st1" d="M859.64,102.1v54.02h-15.44v-53c0-5.1-1.31-9.03-6.26-9.03c-4.37,0-7.72,3.2-7.72,11.94v50.09h-15.44v-53
		c0-5.1-1.31-9.03-6.26-9.03c-4.37,0-7.72,3.2-7.72,11.94v50.09h-15.44V81.86h13.4l0.29,8.59c2.62-6.41,7.86-10.05,14.56-10.05
		c7.14,0,12.23,3.06,14.85,9.9c2.62-6.26,8.01-9.9,14.56-9.9C853.38,80.41,859.64,86.96,859.64,102.1z"/>
	<path class="st1" d="M915.41,104.58v17.77h-30.29v12.52c0,6.55,2.62,9.03,7.72,9.03c4.95,0,7.72-2.48,7.72-9.03v-2.77h14.85v1.31
		c0,15.44-8.01,24.17-22.86,24.17s-22.86-8.74-22.86-24.17v-28.83c0-15.43,8.01-24.17,22.86-24.17S915.41,89.14,915.41,104.58z
		 M900.27,110.11v-6.99c0-6.55-2.77-9.03-7.57-9.03c-4.8,0-7.57,2.48-7.57,9.03v6.99H900.27z"/>
	<path class="st1" d="M958.07,81.28v15c-1.17-0.29-2.62-0.44-3.93-0.44c-8.59,0-13.11,5.97-13.11,17.47v42.81H925.6V81.86H939
		l0.29,12.52c2.04-9.32,6.84-13.98,14.42-13.98C955.6,80.41,956.91,80.7,958.07,81.28z"/>
	<path class="st1" d="M962.15,134.87v-2.33H977v2.77c0,6.7,2.91,9.03,6.84,9.03s6.7-2.18,6.7-8.01c0-5.53-4.95-8.45-10.78-11.79
		c-7.86-4.51-16.89-9.61-16.89-23.59c0-12.38,7.13-20.53,20.82-20.53c12.67,0,20.82,8.15,20.82,21.7v1.6h-14.56v-2.04
		c0-5.97-2.33-8.01-6.12-8.01c-3.2,0-5.97,1.89-5.97,6.99c0,6.12,5.24,9.32,11.36,12.67c7.86,4.37,16.6,9.46,16.6,22.72
		c0,13.11-7.13,21.55-21.26,21.55C970.3,157.58,962.15,149.14,962.15,134.87z"/>
	<path class="st1" d="M1083.59,102.1v33.78c0,15.29-6.55,21.7-16.89,21.7c-5.53,0-10.05-2.48-13.11-6.84v27.96h-15.43V81.86h13.4
		l0.29,8.74c2.62-6.41,8.15-10.19,14.85-10.19C1077.04,80.41,1083.59,86.81,1083.59,102.1z M1068.15,103.12
		c0-5.1-1.46-9.03-6.55-9.03c-4.37,0-8.01,3.2-8.01,11.94v25.92c0,8.74,3.64,11.94,8.01,11.94c5.1,0,6.55-3.93,6.55-9.03V103.12z"/>
	<path class="st1" d="M1093.05,133.41v-28.83c0-15.43,8.15-24.17,22.72-24.17s22.72,8.74,22.72,24.17v28.83
		c0,15.44-8.15,24.17-22.72,24.17S1093.05,148.85,1093.05,133.41z M1123.05,134.87v-31.74c0-5.1-1.6-9.03-7.28-9.03
		s-7.28,3.93-7.28,9.03v31.74c0,5.24,1.75,9.03,7.28,9.03S1123.05,140.11,1123.05,134.87z"/>
	<path class="st1" d="M1181.44,81.28v15c-1.17-0.29-2.62-0.44-3.93-0.44c-8.59,0-13.11,5.97-13.11,17.47v42.81h-15.43V81.86h13.4
		l0.29,12.52c2.04-9.32,6.84-13.98,14.42-13.98C1178.96,80.41,1180.27,80.7,1181.44,81.28z"/>
	<path class="st1" d="M1241.86,156.13c-0.44-0.87-1.02-4.08-1.17-8.74c-2.77,6.55-8.3,10.19-15.73,10.19
		c-9.9,0-16.16-7.13-16.16-18.64c0-11.65,4.81-18.35,17.91-24.75c10.63-5.24,12.09-6.55,12.09-10.63v-1.46
		c0-5.97-1.89-8.45-6.26-8.45c-4.8,0-6.99,3.06-6.99,8.59v2.77h-14.56v-1.89c0-14.42,7.43-22.72,21.7-22.72
		c15.44,0,21.55,8.15,21.55,24.46v29.85c0,10.48,0.73,17.18,1.75,21.41H1241.86z M1238.81,131.96v-12.67
		c-1.17,1.46-3.5,2.91-7.57,5.53c-4.66,2.91-6.99,6.7-6.99,11.5c0,5.24,2.18,8.01,6.55,8.01
		C1236.04,144.33,1238.81,140.11,1238.81,131.96z"/>
	<path class="st1" d="M1264.58,133.7v-29.41c0-15.14,7.86-23.88,22.57-23.88c14.85,0,21.99,9.32,21.99,23.88v4.51h-14.85v-5.97
		c0-5.53-1.89-8.74-7.14-8.74s-7.13,3.2-7.13,8.74v32.33c0,5.53,1.89,8.74,7.13,8.74s7.14-3.2,7.14-8.74v-7.43h14.85v5.97
		c0,14.56-7.14,23.88-21.99,23.88C1272.44,157.58,1264.58,148.85,1264.58,133.7z"/>
	<path class="st1" d="M1317.58,133.7v-29.41c0-15.14,7.86-23.88,22.57-23.88c14.85,0,21.99,9.32,21.99,23.88v4.51h-14.85v-5.97
		c0-5.53-1.89-8.74-7.14-8.74s-7.13,3.2-7.13,8.74v32.33c0,5.53,1.89,8.74,7.13,8.74s7.14-3.2,7.14-8.74v-7.43h14.85v5.97
		c0,14.56-7.13,23.88-21.99,23.88C1325.44,157.58,1317.58,148.85,1317.58,133.7z"/>
	<path class="st1" d="M1371.75,55.8h15.44v16.89h-15.44V55.8z M1371.75,81.86h15.44v74.26h-15.44V81.86z"/>
	<path class="st1" d="M1431.16,156.13c-0.44-0.87-1.02-4.08-1.31-8.74c-2.62,6.41-8.16,10.19-15,10.19
		c-10.19,0-16.75-6.41-16.75-21.7V102.1c0-15.29,6.55-21.7,16.75-21.7c5.53,0,10.19,2.48,13.25,6.84V54.2h15.44v80.53
		c0,10.48,0.73,17.18,1.75,21.41H1431.16z M1428.1,131.96v-25.92c0-8.74-3.64-11.94-8.01-11.94c-5.1,0-6.55,3.93-6.55,9.03v31.74
		c0,5.1,1.46,9.03,6.55,9.03C1424.46,143.9,1428.1,140.69,1428.1,131.96z"/>
	<path class="st1" d="M1499.74,104.58v17.77h-30.29v12.52c0,6.55,2.62,9.03,7.72,9.03c4.95,0,7.72-2.48,7.72-9.03v-2.77h14.85v1.31
		c0,15.44-8.01,24.17-22.86,24.17c-14.85,0-22.86-8.74-22.86-24.17v-28.83c0-15.43,8.01-24.17,22.86-24.17
		C1491.73,80.41,1499.74,89.14,1499.74,104.58z M1484.59,110.11v-6.99c0-6.55-2.77-9.03-7.57-9.03c-4.81,0-7.57,2.48-7.57,9.03v6.99
		H1484.59z"/>
	<path class="st1" d="M1555.07,102.1v54.02h-15.43v-52.28c0-6.41-1.75-9.76-6.41-9.76c-4.37,0-7.86,3.06-7.86,11.94v50.09h-15.44
		V81.86h13.4l0.29,8.59c2.62-6.41,8.01-10.05,14.85-10.05C1548.81,80.41,1555.07,86.81,1555.07,102.1z"/>
	<path class="st1" d="M1586.23,94.97v42.52c0,4.66,1.6,6.41,5.97,6.41c1.6,0,3.35-0.29,5.24-0.87v13.11
		c-2.62,1.02-5.24,1.46-8.45,1.46c-12.23,0-18.2-5.97-18.2-18.06V94.97h-8.45V81.86h9.17l1.46-20.09h13.25v20.09h11.21v13.11
		H1586.23z"/>
	<path class="st1" d="M1650.16,104.58v17.77h-30.29v12.52c0,6.55,2.62,9.03,7.72,9.03c4.95,0,7.72-2.48,7.72-9.03v-2.77h14.85v1.31
		c0,15.44-8.01,24.17-22.86,24.17c-14.85,0-22.86-8.74-22.86-24.17v-28.83c0-15.43,8.01-24.17,22.86-24.17
		C1642.15,80.41,1650.16,89.14,1650.16,104.58z M1635.01,110.11v-6.99c0-6.55-2.77-9.03-7.57-9.03c-4.81,0-7.57,2.48-7.57,9.03v6.99
		H1635.01z"/>
</g>
</svg>
